<?xml version="1.0" standalone="no"?>
<!DOCTYPE svg PUBLIC "-//W3C//DTD SVG 20010904//EN"
 "http://www.w3.org/TR/2001/REC-SVG-20010904/DTD/svg10.dtd">
<svg version="1.0" xmlns="http://www.w3.org/2000/svg"
 width="160.000000pt" height="160.000000pt" viewBox="0 0 160.000000 160.000000"
 preserveAspectRatio="xMidYMid meet">
<metadata>
Created by potrace 1.14, written by Peter Selinger 2001-2017
</metadata>
<g transform="translate(0.000000,160.000000) scale(0.100000,-0.100000)"
fill="#000000" stroke="none">
<path d="M640 1440 c-72 -5 -75 -6 -74 -30 1 -25 12 -140 19 -195 2 -16 6 -55
10 -85 3 -30 8 -73 11 -95 10 -82 12 -102 19 -170 4 -38 8 -81 11 -95 2 -14 6
-50 9 -80 8 -79 15 -123 19 -127 5 -5 187 -5 193 0 2 3 6 22 9 43 7 63 13 116
19 164 3 25 8 63 10 85 2 22 6 60 9 85 7 60 15 132 22 200 3 30 7 66 9 80 6
31 17 145 19 185 1 28 -2 30 -39 35 -22 3 -53 3 -70 0 -16 -3 -52 -3 -80 0
-27 3 -84 3 -125 0z"/>
<path d="M710 467 c-85 -22 -126 -133 -83 -224 60 -127 261 -93 280 47 17 128
-73 210 -197 177z"/>
</g>
</svg>
